<?xml version="1.0" standalone="no"?>
<!DOCTYPE svg PUBLIC "-//W3C//DTD SVG 20010904//EN"
 "http://www.w3.org/TR/2001/REC-SVG-20010904/DTD/svg10.dtd">
<svg version="1.0" xmlns="http://www.w3.org/2000/svg"
 width="973.000000pt" height="577.000000pt" viewBox="0 0 973.000000 577.000000"
 preserveAspectRatio="xMidYMid meet">

<g transform="translate(0.000000,577.000000) scale(0.100000,-0.100000)"
fill="#000000" stroke="none">
<path d="M5076 5425 c4 -8 8 -15 10 -15 2 0 4 7 4 15 0 8 -4 15 -10 15 -5 0
-7 -7 -4 -15z"/>
<path d="M3630 5267 c-74 -44 -196 -131 -222 -158 -15 -16 -31 -29 -35 -29 -9
0 -157 -151 -203 -205 -41 -50 -120 -154 -120 -159 0 -2 -16 -28 -36 -58 -31
-46 -151 -284 -167 -329 -3 -9 -1 -22 5 -30 8 -11 9 -10 4 4 -3 9 -1 17 4 17
6 0 10 12 10 26 0 14 4 23 8 20 4 -2 14 4 21 16 10 16 10 19 -1 12 -7 -4 -3 5
10 20 12 16 19 32 16 37 -3 5 4 19 16 31 11 12 18 28 16 34 -3 7 1 14 7 17 7
3 25 31 41 63 16 33 32 61 35 64 10 9 51 69 51 75 0 3 5 11 10 18 48 56 58 72
53 80 -3 6 -2 7 3 4 6 -3 36 23 68 59 32 36 62 61 68 58 6 -4 8 -2 5 3 -8 12
17 36 26 26 4 -3 7 -1 7 5 0 14 72 88 83 84 4 -1 7 3 7 9 0 5 5 7 10 4 6 -4 9
-2 8 3 -5 18 44 53 65 46 16 -5 19 -3 15 13 -3 12 0 20 8 20 7 0 10 -5 7 -11
-6 -10 34 19 47 35 3 3 13 9 24 12 12 5 16 13 12 23 -5 13 -3 14 7 6 17 -14
39 0 35 24 -2 10 2 19 9 19 6 0 15 3 19 8 15 15 -22 5 -56 -16z"/>
<path d="M4831 4814 c0 -11 3 -14 6 -6 3 7 2 16 -1 19 -3 4 -6 -2 -5 -13z"/>
<path d="M4496 4797 c3 -10 9 -15 12 -12 3 3 0 11 -7 18 -10 9 -11 8 -5 -6z"/>
<path d="M4800 4299 c0 -5 5 -7 10 -4 6 3 10 8 10 11 0 2 -4 4 -10 4 -5 0 -10
-5 -10 -11z"/>
<path d="M2822 4263 c-7 -21 -8 -41 -3 -46 5 -5 12 9 16 33 9 53 2 61 -13 13z"/>
<path d="M4766 4214 c-9 -23 -2 -28 13 -10 7 8 8 17 3 20 -6 3 -13 -1 -16 -10z"/>
<path d="M2790 4174 c-10 -28 -9 -38 0 -47 10 -9 11 -9 6 1 -4 7 -4 18 1 25 9
12 15 57 8 57 -2 0 -9 -16 -15 -36z"/>
<path d="M4737 4129 c-8 -28 -3 -34 11 -16 6 7 7 19 3 26 -6 9 -10 6 -14 -10z"/>
<path d="M2760 4083 c0 -6 -3 -20 -6 -30 -7 -17 -6 -17 12 -1 14 14 16 21 6
30 -8 8 -12 9 -12 1z"/>
<path d="M4710 4050 c0 -5 5 -10 11 -10 5 0 7 5 4 10 -3 6 -8 10 -11 10 -2 0
-4 -4 -4 -10z"/>
<path d="M4682 3970 c0 -14 2 -19 5 -12 2 6 2 18 0 25 -3 6 -5 1 -5 -13z"/>
<path d="M2717 3920 c-3 -12 0 -20 8 -20 8 0 11 8 8 20 -3 11 -7 20 -8 20 -1
0 -5 -9 -8 -20z"/>
<path d="M4646 3872 c-5 -18 -5 -36 -2 -39 7 -7 19 43 13 59 -2 7 -7 -2 -11
-20z"/>
<path d="M4617 3789 c-4 -13 -6 -35 -6 -49 1 -21 2 -21 6 -5 3 11 9 25 13 30
4 6 4 19 0 29 -6 18 -7 18 -13 -5z"/>
<path d="M4586 3704 c-4 -12 -6 -26 -5 -30 1 -5 1 -20 0 -34 -1 -19 -3 -22
-10 -11 -8 12 -11 9 -17 -13 -14 -57 -100 -183 -178 -261 -44 -44 -80 -84 -80
-90 -1 -5 -8 -10 -16 -11 -38 -2 -42 -5 -36 -20 3 -9 2 -12 -5 -9 -18 12 -59
-4 -53 -20 5 -11 11 -12 25 -4 10 5 19 7 19 4 0 -3 15 6 34 20 19 15 38 26 43
25 4 -1 10 7 14 17 5 12 8 13 8 3 1 -10 6 -7 17 8 8 12 19 20 24 17 4 -3 10 5
13 16 4 13 10 18 18 13 7 -4 10 -3 6 3 -4 6 18 38 48 72 30 34 55 68 55 75 0
8 7 17 16 20 8 3 13 10 10 14 -3 5 2 20 12 33 9 13 18 30 19 39 1 8 6 23 11
35 24 51 29 71 22 90 -7 20 -7 20 -14 -1z"/>
<path d="M2673 3503 c-13 -32 -14 -55 -5 -148 l10 -110 -5 111 c-4 85 -1 118
11 147 8 20 13 37 10 37 -3 0 -12 -17 -21 -37z"/>
<path d="M2683 3175 c0 -22 2 -30 4 -17 2 12 2 30 0 40 -3 9 -5 -1 -4 -23z"/>
<path d="M4121 3191 c-22 -14 -4 -31 23 -21 13 5 27 6 30 3 3 -4 6 0 6 8 0 17
-38 23 -59 10z"/>
<path d="M4035 3145 c16 -7 35 -10 43 -8 20 8 8 14 -34 17 l-39 4 30 -13z"/>
<path d="M2692 3110 c0 -14 2 -19 5 -12 2 6 2 18 0 25 -3 6 -5 1 -5 -13z"/>
<path d="M2702 3060 c0 -14 2 -19 5 -12 2 6 2 18 0 25 -3 6 -5 1 -5 -13z"/>
<path d="M2711 2974 c0 -11 3 -14 6 -6 3 7 2 16 -1 19 -3 4 -6 -2 -5 -13z"/>
<path d="M2722 2940 c0 -8 4 -26 8 -40 6 -20 8 -21 8 -5 0 11 -3 29 -8 40 -5
12 -8 14 -8 5z"/>
<path d="M2742 2850 c0 -14 2 -19 5 -12 2 6 2 18 0 25 -3 6 -5 1 -5 -13z"/>
<path d="M2751 2815 c1 -19 18 -51 18 -35 0 8 -4 22 -9 30 -5 8 -9 11 -9 5z"/>
<path d="M2781 2715 c1 -19 18 -51 18 -35 0 8 -4 22 -9 30 -5 8 -9 11 -9 5z"/>
<path d="M2821 2610 c0 -8 4 -22 9 -30 12 -18 12 -2 0 25 -6 13 -9 15 -9 5z"/>
<path d="M2910 2401 c0 -6 4 -13 10 -16 6 -3 7 1 4 9 -7 18 -14 21 -14 7z"/>
<path d="M8937 1079 c4 -13 8 -18 11 -10 2 7 -1 18 -6 23 -8 8 -9 4 -5 -13z"/>
<path d="M408 1063 c7 -3 16 -2 19 1 4 3 -2 6 -13 5 -11 0 -14 -3 -6 -6z"/>
<path d="M330 700 c0 -198 3 -360 8 -360 4 0 6 158 4 352 -2 276 0 353 10 360
10 6 8 8 -4 8 -17 0 -18 -24 -18 -360z"/>
<path d="M2535 1050 c3 -5 8 -10 11 -10 2 0 4 5 4 10 0 6 -5 10 -11 10 -5 0
-7 -4 -4 -10z"/>
<path d="M3295 1050 c3 -5 8 -10 11 -10 2 0 4 5 4 10 0 6 -5 10 -11 10 -5 0
-7 -4 -4 -10z"/>
<path d="M4991 1044 c0 -11 3 -14 6 -6 3 7 2 16 -1 19 -3 4 -6 -2 -5 -13z"/>
<path d="M5945 1050 c3 -5 8 -10 11 -10 2 0 4 5 4 10 0 6 -5 10 -11 10 -5 0
-7 -4 -4 -10z"/>
<path d="M7765 1050 c3 -5 8 -10 11 -10 2 0 4 5 4 10 0 6 -5 10 -11 10 -5 0
-7 -4 -4 -10z"/>
<path d="M3831 1041 c-25 -16 7 -22 41 -8 l33 14 -31 1 c-16 0 -36 -3 -43 -7z"/>
<path d="M4122 1030 c0 -14 2 -19 5 -12 2 6 2 18 0 25 -3 6 -5 1 -5 -13z"/>
<path d="M6577 1039 c-10 -6 -25 -8 -34 -5 -20 8 -75 -27 -105 -67 -57 -77
-85 -144 -55 -134 6 2 12 9 12 16 0 6 5 15 11 19 6 4 16 16 22 27 7 12 12 15
12 6 0 -9 8 -5 23 11 22 24 57 34 57 16 0 -4 4 -8 8 -8 4 0 8 12 7 28 0 18 5
26 14 24 8 -2 11 3 8 12 -4 11 2 18 19 22 14 4 22 9 19 12 -3 3 7 11 22 18
l28 12 -25 1 c-14 0 -33 -4 -43 -10z"/>
<path d="M3763 1027 c-4 -8 -16 -16 -25 -20 -19 -7 -20 -44 -1 -44 6 0 10 4 8
8 -7 11 21 19 32 8 6 -6 16 -2 28 11 17 19 19 19 32 2 9 -10 12 -11 7 -2 -22
46 -64 65 -81 37z"/>
<path d="M8346 1027 c3 -10 9 -15 12 -12 3 3 0 11 -7 18 -10 9 -11 8 -5 -6z"/>
<path d="M1885 1020 c-3 -5 1 -10 10 -10 9 0 13 5 10 10 -3 6 -8 10 -10 10 -2
0 -7 -4 -10 -10z"/>
<path d="M1920 1015 c0 -9 6 -12 15 -9 8 4 12 10 9 15 -8 14 -24 10 -24 -6z"/>
<path d="M1974 1016 c19 -15 15 -53 -4 -41 -6 3 -7 -1 -4 -9 3 -9 10 -14 14
-11 5 3 10 -3 13 -12 2 -10 4 1 4 25 1 34 -4 45 -21 53 -20 10 -20 9 -2 -5z"/>
<path d="M2391 1014 c0 -11 3 -14 6 -6 3 7 2 16 -1 19 -3 4 -6 -2 -5 -13z"/>
<path d="M2766 1022 c-2 -4 4 -9 15 -9 10 -1 19 2 19 8 0 11 -27 12 -34 1z"/>
<path d="M5033 1012 c-4 -10 -9 -10 -22 0 -13 10 -14 10 -3 -2 15 -17 16 -34
2 -25 -6 4 -9 3 -8 -2 1 -4 -1 -18 -6 -30 -4 -13 -3 -31 3 -40 9 -16 11 -15
12 7 1 14 1 30 0 36 -2 19 41 56 60 51 11 -3 19 0 19 8 0 17 -51 14 -57 -3z"/>
<path d="M5120 1004 c0 -21 -3 -24 -21 -19 -17 6 -20 3 -17 -12 3 -13 12 -18
36 -16 18 1 30 -2 27 -7 -3 -4 2 -10 10 -14 11 -4 13 -14 8 -37 -4 -24 -2 -34
11 -41 9 -5 15 -12 12 -16 -2 -4 7 -7 19 -7 15 0 21 4 15 10 -13 12 -13 28 0
20 6 -3 10 1 10 10 0 11 5 15 14 12 10 -4 12 0 8 15 -3 13 -7 16 -12 8 -5 -9
-9 -9 -14 -1 -12 18 -36 13 -30 -6 5 -16 4 -16 -6 0 -9 14 -9 22 1 35 8 9 9
14 5 10 -5 -4 -22 0 -38 10 -24 14 -28 22 -24 45 3 15 1 27 -4 27 -6 0 -10
-12 -10 -26z"/>
<path d="M7641 1014 c0 -11 3 -14 6 -6 3 7 2 16 -1 19 -3 4 -6 -2 -5 -13z"/>
<path d="M8970 1021 c-16 -5 -21 -9 -13 -14 7 -5 25 -1 40 7 29 16 16 19 -27
7z"/>
<path d="M9206 1021 c-3 -5 -1 -23 5 -40 10 -28 9 -72 -2 -110 -2 -7 1 -15 8
-18 8 -3 11 3 8 16 -2 12 1 21 7 21 6 0 8 11 6 25 -3 14 -1 25 6 25 6 0 4 5
-4 10 -12 7 -12 12 -2 22 17 17 15 26 -5 24 -11 0 -17 6 -17 17 2 19 -2 22
-10 8z"/>
<path d="M5140 1000 c0 -5 5 -10 10 -10 6 0 10 5 10 10 0 6 -4 10 -10 10 -5 0
-10 -4 -10 -10z"/>
<path d="M8630 978 c11 -18 20 -51 20 -72 0 -28 3 -37 10 -30 7 7 8 25 2 50
-5 22 -8 48 -6 58 1 10 0 15 -3 12 -3 -3 -14 -1 -24 5 -18 9 -18 8 1 -23z"/>
<path d="M8683 1003 c-20 -7 -15 -19 7 -19 11 0 20 4 20 8 0 4 7 5 15 2 8 -4
15 -1 15 5 0 11 -34 14 -57 4z"/>
<path d="M8775 1001 c4 -8 7 -38 6 -67 -1 -29 3 -55 9 -59 16 -10 6 113 -10
128 -10 10 -11 9 -5 -2z"/>
<path d="M8360 990 c0 -5 5 -10 10 -10 6 0 10 5 10 10 0 6 -4 10 -10 10 -5 0
-10 -4 -10 -10z"/>
<path d="M2392 960 c0 -19 2 -27 5 -17 2 9 2 25 0 35 -3 9 -5 1 -5 -18z"/>
<path d="M7644 825 c0 -93 2 -133 3 -88 2 45 2 122 0 170 -1 48 -3 12 -3 -82z"/>
<path d="M515 970 c-23 -6 -15 -8 35 -8 46 0 58 2 40 8 -30 10 -37 10 -75 0z"/>
<path d="M723 973 c4 -3 2 -12 -4 -19 -7 -8 -7 -14 1 -19 5 -3 10 -11 10 -18
0 -6 -6 -4 -12 5 -7 8 -28 18 -47 22 l-35 6 21 -22 c22 -25 36 -85 21 -94 -5
-3 -4 -12 2 -19 9 -11 7 -12 -11 -8 -15 4 -20 3 -15 -5 5 -8 0 -12 -13 -12
-11 0 -23 -4 -26 -10 -5 -8 8 -15 18 -8 8 6 46 -25 41 -34 -4 -7 -3 -8 4 -4 7
4 12 15 12 24 0 15 2 15 10 2 8 -12 10 -11 10 8 0 12 6 22 14 22 24 0 33 41
23 105 -1 6 6 9 16 7 13 -2 17 2 15 15 -3 17 -43 63 -55 63 -4 0 -3 -3 0 -7z
m16 -140 c1 -12 -4 -25 -10 -29 -7 -4 -9 0 -5 14 4 11 3 23 -3 26 -5 3 -7 16
-3 28 5 21 6 21 13 2 4 -10 8 -29 8 -41z"/>
<path d="M1801 963 c-1 -13 2 -23 7 -24 4 0 17 -2 29 -5 12 -2 23 2 27 11 8
22 -14 29 -29 9 -13 -18 -14 -18 -24 6 -9 24 -10 24 -10 3z"/>
<path d="M1920 965 c0 -7 6 -18 13 -22 7 -4 21 -42 30 -83 10 -41 22 -82 28
-90 8 -12 9 -10 4 7 -12 42 -16 68 -19 107 -2 26 -11 46 -25 58 -13 9 -20 22
-16 28 3 5 1 10 -4 10 -6 0 -11 -7 -11 -15z"/>
<path d="M5160 970 c0 -5 5 -10 10 -10 6 0 10 5 10 10 0 6 -4 10 -10 10 -5 0
-10 -4 -10 -10z"/>
<path d="M6690 970 c0 -5 5 -10 11 -10 5 0 7 5 4 10 -3 6 -8 10 -11 10 -2 0
-4 -4 -4 -10z"/>
<path d="M6878 967 c8 -9 11 -21 7 -27 -3 -5 -1 -10 6 -10 7 0 9 -3 6 -7 -4
-3 -1 -13 6 -21 6 -8 12 -25 12 -36 0 -12 10 -25 23 -31 12 -5 22 -17 22 -27
0 -9 5 -20 12 -24 7 -4 8 -3 4 4 -4 7 -2 12 3 12 14 0 14 50 1 70 -6 10 -10
11 -10 3 0 -7 -5 -13 -11 -13 -6 0 -9 6 -6 14 7 17 -37 82 -66 97 -20 11 -21
11 -9 -4z m99 -139 c-3 -8 -6 -5 -6 6 -1 11 2 17 5 13 3 -3 4 -12 1 -19z"/>
<path d="M3691 939 c-13 -39 -14 -119 -1 -139 6 -10 8 5 4 45 -3 34 -1 73 6
89 6 16 9 31 6 33 -2 2 -9 -10 -15 -28z"/>
<path d="M4956 948 c-8 -32 -7 -50 2 -44 8 5 15 66 7 66 -1 0 -5 -10 -9 -22z"/>
<path d="M8677 957 c-3 -8 -2 -20 3 -26 5 -9 8 -4 8 13 0 29 -3 32 -11 13z"/>
<path d="M8706 957 c3 -10 9 -15 12 -12 3 3 0 11 -7 18 -10 9 -11 8 -5 -6z"/>
<path d="M1135 865 c3 -129 15 -134 15 -7 0 56 -4 102 -8 102 -5 0 -8 -43 -7
-95z"/>
<path d="M1198 953 c18 -2 45 -2 60 0 15 2 0 4 -33 4 -33 0 -45 -2 -27 -4z"/>
<path d="M1380 946 c0 -9 5 -16 10 -16 6 0 10 -6 10 -14 0 -7 6 -19 14 -25 10
-9 16 -8 26 4 11 13 11 16 0 13 -8 -2 -16 6 -18 16 -3 15 0 18 16 14 15 -4 19
-2 15 8 -4 10 -10 11 -25 3 -14 -7 -23 -7 -34 2 -11 9 -14 8 -14 -5z"/>
<path d="M3812 940 c-1 -14 -3 -34 -4 -45 -2 -12 3 -20 12 -20 8 0 17 11 19
25 1 14 8 28 15 32 6 5 2 8 -11 8 -12 0 -23 6 -26 13 -2 6 -5 1 -5 -13z"/>
<path d="M6758 953 c7 -3 16 -2 19 1 4 3 -2 6 -13 5 -11 0 -14 -3 -6 -6z"/>
<path d="M817 943 c6 -5 14 -31 16 -58 l4 -50 -1 54 c-1 39 -5 56 -16 58 -10
3 -11 2 -3 -4z"/>
<path d="M4240 940 c0 -5 5 -10 11 -10 5 0 7 5 4 10 -3 6 -8 10 -11 10 -2 0
-4 -4 -4 -10z"/>
<path d="M453 923 c-3 -10 -8 -22 -11 -27 -3 -5 0 -6 6 -2 6 3 13 2 16 -3 4
-5 2 -12 -4 -16 -5 -3 -11 -18 -11 -33 l-1 -27 -8 30 c-6 25 -8 26 -9 7 0 -12
-8 -25 -16 -28 -27 -11 -16 -19 25 -19 l41 -1 -2 68 c-2 65 -13 87 -26 51z"/>
<path d="M1352 927 c-7 -8 -7 -18 -2 -27 6 -8 10 -29 10 -46 0 -23 5 -33 20
-37 10 -3 19 -2 18 2 0 3 0 17 2 31 1 23 2 23 10 5 6 -15 9 -16 9 -4 1 9 -11
29 -26 45 -15 16 -26 32 -25 37 3 11 -4 8 -16 -6z m16 -32 c-3 -3 -9 2 -12 12
-6 14 -5 15 5 6 7 -7 10 -15 7 -18z"/>
<path d="M4368 933 c7 -3 16 -2 19 1 4 3 -2 6 -13 5 -11 0 -14 -3 -6 -6z"/>
<path d="M5057 925 c-4 -9 -12 -13 -19 -10 -7 4 -5 0 5 -8 9 -8 17 -23 18 -33
0 -14 3 -12 10 8 7 17 7 34 1 44 -8 15 -9 15 -15 -1z"/>
<path d="M5115 903 c6 -44 33 -133 35 -118 6 38 6 53 0 50 -4 -3 -10 18 -14
45 -4 27 -11 52 -17 56 -7 4 -8 -7 -4 -33z"/>
<path d="M5523 933 c15 -2 37 -2 50 0 12 2 0 4 -28 4 -27 0 -38 -2 -22 -4z"/>
<path d="M6573 918 c-18 -13 -33 -30 -33 -37 0 -9 14 -2 35 19 32 31 39 40 32
40 -1 0 -17 -10 -34 -22z"/>
<path d="M1903 918 c0 -7 -3 -23 -7 -35 -4 -13 -3 -23 2 -23 12 0 23 52 13 63
-4 4 -8 2 -8 -5z"/>
<path d="M6810 922 c0 -6 4 -12 9 -14 5 -1 18 -19 30 -38 l21 -35 -3 37 c-3
35 -17 67 -17 38 0 -9 -6 -8 -20 5 -11 10 -20 13 -20 7z"/>
<path d="M7003 896 c7 -14 13 -23 15 -21 7 6 -9 45 -18 45 -4 0 -3 -11 3 -24z"/>
<path d="M8700 905 c0 -8 4 -15 10 -15 5 0 7 7 4 15 -4 8 -8 15 -10 15 -2 0
-4 -7 -4 -15z"/>
<path d="M791 894 c0 -11 3 -14 6 -6 3 7 2 16 -1 19 -3 4 -6 -2 -5 -13z"/>
<path d="M4587 903 c-4 -3 -7 -13 -7 -22 1 -13 3 -13 11 2 11 19 8 33 -4 20z"/>
<path d="M5602 623 c-2 -265 0 -293 14 -293 13 0 14 3 5 13 -7 9 -12 108 -14
293 l-2 279 -3 -292z"/>
<path d="M6480 887 c-10 -17 -10 -19 4 -14 18 7 21 -4 6 -19 -8 -8 -6 -15 5
-24 8 -7 15 -20 15 -29 0 -13 2 -14 9 -2 5 8 7 21 3 29 -3 10 -1 13 6 8 7 -4
12 -3 12 3 0 5 -7 14 -16 19 -11 6 -15 17 -12 29 7 26 -16 26 -32 0z m30 -47
c0 -5 -2 -10 -4 -10 -3 0 -8 5 -11 10 -3 6 -1 10 4 10 6 0 11 -4 11 -10z"/>
<path d="M8682 885 c0 -16 2 -22 5 -12 2 9 2 23 0 30 -3 6 -5 -1 -5 -18z"/>
<path d="M6875 890 c3 -5 8 -10 11 -10 2 0 4 5 4 10 0 6 -5 10 -11 10 -5 0 -7
-4 -4 -10z"/>
<path d="M1513 850 c0 -25 2 -35 4 -22 2 12 2 32 0 45 -2 12 -4 2 -4 -23z"/>
<path d="M3761 863 c-1 -12 4 -25 9 -28 12 -7 12 2 0 30 -8 19 -9 19 -9 -2z"/>
<path d="M8705 870 c3 -5 8 -10 11 -10 2 0 4 5 4 10 0 6 -5 10 -11 10 -5 0 -7
-4 -4 -10z"/>
<path d="M1770 850 c0 -11 5 -20 10 -20 6 0 10 9 10 20 0 11 -4 20 -10 20 -5
0 -10 -9 -10 -20z"/>
<path d="M4965 851 c-3 -5 -1 -12 5 -16 5 -3 10 1 10 9 0 18 -6 21 -15 7z"/>
<path d="M6410 850 c0 -5 7 -7 15 -4 8 4 15 8 15 10 0 2 -7 4 -15 4 -8 0 -15
-4 -15 -10z"/>
<path d="M7024 827 c4 -31 2 -37 -8 -28 -19 16 -28 -10 -10 -27 10 -9 14 -9
14 -1 0 6 7 9 15 5 19 -7 19 19 -1 59 l-14 30 4 -38z"/>
<path d="M2880 838 c0 -16 39 -109 49 -118 3 -3 17 -27 30 -55 43 -88 58 -108
65 -90 3 9 2 13 -4 10 -9 -6 -14 8 -11 28 1 5 -3 6 -9 2 -5 -3 -10 1 -10 10 0
9 5 13 10 10 6 -3 13 1 16 10 4 10 14 15 25 12 27 -7 24 21 -6 65 -14 20 -25
41 -25 46 0 5 -7 15 -15 22 -26 21 -45 -5 -40 -53 5 -38 4 -40 -7 -17 -6 14
-10 33 -9 44 2 10 -2 15 -7 12 -9 -5 -25 23 -27 46 0 4 -6 13 -12 20 -10 10
-13 9 -13 -4z m108 -79 c-16 -10 -33 5 -23 21 5 8 11 8 21 -1 12 -10 12 -14 2
-20z m7 -19 c3 -5 -1 -10 -10 -10 -9 0 -13 5 -10 10 3 6 8 10 10 10 2 0 7 -4
10 -10z m30 -30 c3 -5 1 -11 -4 -11 -6 -1 -15 -3 -21 -4 -5 -1 -13 -3 -16 -4
-4 0 1 -12 10 -26 12 -18 13 -24 4 -23 -7 2 -16 12 -19 23 -10 36 28 73 46 45z"/>
<path d="M6880 835 c-7 -9 -11 -17 -9 -20 3 -2 10 5 17 15 14 24 10 26 -8 5z"/>
<path d="M9170 840 c-12 -7 -10 -9 7 -7 12 0 19 5 17 9 -6 10 -6 10 -24 -2z"/>
<path d="M1833 806 c1 -19 4 -33 8 -30 9 5 8 53 -1 59 -4 3 -7 -11 -7 -29z"/>
<path d="M4920 820 c0 -19 11 -26 23 -14 8 8 -3 34 -14 34 -5 0 -9 -9 -9 -20z"/>
<path d="M6906 831 c-3 -5 1 -14 8 -20 12 -10 13 -8 9 8 -6 23 -9 25 -17 12z"/>
<path d="M7361 822 c-1 -12 3 -30 9 -40 5 -9 15 -30 21 -47 6 -17 13 -24 16
-17 3 7 0 19 -7 27 -6 8 -9 19 -5 25 4 6 0 19 -8 28 -8 9 -17 24 -20 32 -4 10
-6 7 -6 -8z"/>
<path d="M8661 824 c0 -11 3 -14 6 -6 3 7 2 16 -1 19 -3 4 -6 -2 -5 -13z"/>
<path d="M1890 830 c-1 -3 -3 -16 -6 -30 -5 -30 -36 -90 -46 -90 -4 0 -12 8
-17 18 -6 9 -11 13 -11 7 0 -5 -5 -3 -10 5 -7 11 -10 4 -10 -25 0 -22 4 -46 9
-54 12 -18 32 -5 25 17 -5 14 -4 15 5 2 6 -8 11 -10 11 -5 0 6 5 3 10 -5 8
-12 10 -12 11 5 1 26 5 41 24 94 9 24 14 49 11 55 -2 6 -5 9 -6 6z"/>
<path d="M2946 814 c-8 -22 -4 -25 11 -9 7 8 9 16 4 19 -5 3 -12 -1 -15 -10z"/>
<path d="M5026 816 c6 -15 36 -17 31 -3 -2 6 -10 11 -19 13 -10 1 -15 -3 -12
-10z"/>
<path d="M5271 814 c0 -11 3 -14 6 -6 3 7 2 16 -1 19 -3 4 -6 -2 -5 -13z"/>
<path d="M7417 816 c-4 -10 0 -12 14 -9 10 3 16 9 13 14 -8 13 -21 11 -27 -5z"/>
<path d="M9275 810 c-16 -11 -25 -20 -20 -20 10 0 64 39 55 40 -3 0 -18 -9
-35 -20z"/>
<path d="M5195 810 c-3 -5 1 -10 10 -10 9 0 13 5 10 10 -3 6 -8 10 -10 10 -2
0 -7 -4 -10 -10z"/>
<path d="M5237 800 c-3 -13 0 -20 9 -20 15 0 19 26 5 34 -5 3 -11 -3 -14 -14z"/>
<path d="M6365 810 c-3 -5 -1 -10 4 -10 6 0 11 5 11 10 0 6 -2 10 -4 10 -3 0
-8 -4 -11 -10z"/>
<path d="M7307 778 c6 -59 13 -61 13 -5 0 26 -4 47 -8 47 -5 0 -7 -19 -5 -42z"/>
<path d="M7490 816 c0 -2 8 -10 18 -17 15 -13 16 -12 3 4 -13 16 -21 21 -21
13z"/>
<path d="M9105 810 c-3 -6 1 -7 9 -4 18 7 21 14 7 14 -6 0 -13 -4 -16 -10z"/>
<path d="M2844 680 c0 -74 1 -105 3 -67 2 37 2 97 0 135 -2 37 -3 6 -3 -68z"/>
<path d="M3030 800 c0 -5 5 -10 11 -10 5 0 7 5 4 10 -3 6 -8 10 -11 10 -2 0
-4 -4 -4 -10z"/>
<path d="M4987 799 c-13 -8 -15 -14 -7 -29 14 -25 13 -30 -6 -30 -8 0 -12 -4
-9 -10 10 -16 -6 -34 -17 -19 -6 10 -8 3 -6 -21 3 -30 7 -35 30 -36 29 -1 56
11 46 21 -3 4 2 25 13 48 21 46 24 71 9 62 -5 -3 -10 -17 -10 -31 0 -13 -3
-24 -8 -24 -4 0 -13 -14 -21 -31 -7 -17 -17 -27 -22 -22 -10 10 0 55 10 49 13
-8 11 48 -1 57 -9 6 -8 7 5 3 11 -3 17 0 17 9 0 17 0 17 -23 4z"/>
<path d="M6887 745 c3 -33 7 -62 9 -64 7 -8 2 63 -7 94 -5 20 -6 9 -2 -30z"/>
<path d="M1357 784 c-3 -3 -3 -13 0 -22 4 -10 2 -13 -5 -8 -7 4 -26 0 -44 -8
-17 -9 -43 -17 -57 -17 -21 -1 -22 -2 -6 -6 11 -3 26 -10 34 -17 11 -8 13 -8
8 0 -4 7 -1 17 7 23 11 9 15 8 20 -5 4 -12 10 -13 19 -6 6 6 15 11 20 11 4 1
7 4 8 9 0 4 5 13 11 20 7 8 7 12 -1 12 -7 0 -9 5 -6 10 7 11 2 14 -8 4z"/>
<path d="M6375 781 c-3 -5 0 -13 6 -16 5 -4 8 -14 4 -24 -5 -12 -4 -13 6 -4 9
9 9 16 1 26 -7 8 -9 17 -5 20 3 4 4 7 0 7 -3 0 -8 -4 -12 -9z"/>
<path d="M7421 781 c-7 -5 -9 -11 -5 -14 5 -3 15 1 22 9 14 16 5 18 -17 5z"/>
<path d="M8617 783 c-4 -3 -7 -15 -7 -25 0 -10 -17 -35 -38 -56 -20 -20 -52
-54 -69 -76 -18 -21 -57 -65 -88 -98 -36 -38 -54 -65 -51 -75 5 -12 9 -13 21
-3 8 7 15 18 15 25 0 8 10 11 28 8 18 -2 22 -1 10 4 -12 5 -14 13 -9 22 5 7
13 11 19 7 5 -3 9 2 8 12 0 9 5 16 12 15 6 -2 12 3 12 10 1 19 38 59 50 52 6
-4 7 0 4 10 -5 11 0 18 15 22 11 3 18 9 15 14 -3 5 0 9 5 9 6 0 11 6 11 13 0
7 13 31 30 53 29 39 38 64 22 64 -5 0 -12 -3 -15 -7z"/>
<path d="M750 770 c-20 -12 -5 -24 16 -12 9 5 12 12 7 15 -5 3 -15 2 -23 -3z"/>
<path d="M1740 754 c-13 -34 -13 -38 3 -22 8 7 14 21 14 31 0 24 -6 21 -17 -9z"/>
<path d="M4441 764 c0 -11 3 -14 6 -6 3 7 2 16 -1 19 -3 4 -6 -2 -5 -13z"/>
<path d="M6352 760 c0 -14 2 -19 5 -12 2 6 2 18 0 25 -3 6 -5 1 -5 -13z"/>
<path d="M4592 745 c0 -16 2 -22 5 -12 2 9 2 23 0 30 -3 6 -5 -1 -5 -18z"/>
<path d="M5150 755 c0 -8 4 -15 10 -15 5 0 7 7 4 15 -4 8 -8 15 -10 15 -2 0
-4 -7 -4 -15z"/>
<path d="M7520 752 c0 -4 10 -13 23 -21 22 -14 22 -14 3 8 -20 22 -26 25 -26
13z"/>
<path d="M7485 723 c1 -16 -3 -34 -8 -41 -7 -9 -6 -11 7 -6 10 4 15 13 12 20
-3 8 -1 14 3 14 11 0 23 -29 16 -40 -3 -4 2 -10 10 -14 13 -5 13 0 -1 32 -9
20 -18 43 -21 50 -9 22 -20 13 -18 -15z"/>
<path d="M504 731 c3 -5 15 -7 26 -4 28 7 25 13 -6 13 -14 0 -23 -4 -20 -9z"/>
<path d="M4441 724 c0 -11 3 -14 6 -6 3 7 2 16 -1 19 -3 4 -6 -2 -5 -13z"/>
<path d="M5214 712 c1 -14 7 -27 14 -28 7 -1 8 0 2 3 -14 7 -13 30 2 35 8 3 7
6 -4 10 -11 5 -15 0 -14 -20z"/>
<path d="M9020 728 c0 -12 7 -18 23 -17 15 0 17 2 7 6 -8 3 -18 11 -22 17 -5
7 -8 4 -8 -6z"/>
<path d="M1180 720 c0 -5 4 -10 9 -10 6 0 13 5 16 10 3 6 -1 10 -9 10 -9 0
-16 -4 -16 -10z"/>
<path d="M4887 708 c-8 -30 -1 -35 12 -9 6 11 7 22 2 25 -5 3 -11 -4 -14 -16z"/>
<path d="M7041 710 c-6 -63 -5 -118 2 -111 4 4 6 37 4 72 -2 35 -4 53 -6 39z"/>
<path d="M7440 710 c0 -5 5 -10 10 -10 6 0 10 5 10 10 0 6 -4 10 -10 10 -5 0
-10 -4 -10 -10z"/>
<path d="M9088 713 c6 -2 18 -2 25 0 6 3 1 5 -13 5 -14 0 -19 -2 -12 -5z"/>
<path d="M1336 697 c-23 -17 -12 -67 15 -67 10 0 19 7 19 15 0 8 -4 15 -9 15
-4 0 -6 11 -3 25 5 29 3 30 -22 12z"/>
<path d="M4594 620 c0 -52 1 -74 3 -47 2 26 2 68 0 95 -2 26 -3 4 -3 -48z"/>
<path d="M5271 694 c0 -11 3 -14 6 -6 3 7 2 16 -1 19 -3 4 -6 -2 -5 -13z"/>
<path d="M7550 701 c0 -5 7 -15 17 -22 15 -13 15 -12 4 9 -12 23 -21 28 -21
13z"/>
<path d="M697 694 c-4 -4 -2 -13 4 -21 9 -10 8 -13 0 -13 -7 0 -9 -5 -6 -10 5
-8 12 -7 23 2 12 10 14 10 8 1 -4 -8 -2 -13 4 -13 6 0 8 -4 5 -10 -3 -5 -2
-10 3 -10 5 0 12 -8 16 -17 3 -10 9 -25 12 -33 5 -11 2 -11 -13 3 -11 9 -23
14 -26 11 -9 -9 33 -45 44 -38 5 3 9 11 9 19 0 8 7 18 15 23 10 5 13 15 9 26
-5 14 -9 15 -15 4 -7 -10 -9 -9 -9 5 0 9 -8 17 -17 18 -15 0 -15 2 2 8 17 7
16 9 -12 15 -18 4 -37 14 -41 22 -4 8 -11 11 -15 8z"/>
<path d="M2013 687 c4 -10 7 -33 7 -50 0 -22 3 -28 9 -18 9 14 -2 68 -15 80
-4 3 -4 -2 -1 -12z"/>
<path d="M2066 683 c-6 -14 -5 -15 5 -6 7 7 10 15 7 18 -3 3 -9 -2 -12 -12z"/>
<path d="M9250 690 c0 -5 5 -12 10 -15 6 -3 10 -2 10 4 0 6 8 8 18 4 9 -3 14
-3 11 1 -10 11 -49 16 -49 6z"/>
<path d="M7420 680 c0 -5 5 -10 11 -10 5 0 7 5 4 10 -3 6 -8 10 -11 10 -2 0
-4 -4 -4 -10z"/>
<path d="M4035 670 c-11 -5 -14 -9 -6 -9 7 -1 11 -7 7 -16 -3 -8 2 -19 12 -24
9 -5 14 -13 10 -17 -4 -4 -16 4 -27 17 l-20 24 -1 -30 c0 -22 -3 -26 -9 -15
-6 8 -7 18 -5 22 3 4 -4 8 -15 8 -12 0 -21 -5 -21 -11 0 -5 4 -8 9 -4 5 3 15
-10 22 -29 12 -32 39 -58 39 -37 0 5 -6 11 -12 13 -10 4 -10 10 -1 29 10 21
12 22 13 4 0 -11 7 -31 15 -45 l14 -25 1 28 c0 18 5 27 16 27 18 0 11 34 -13
62 -8 9 -12 22 -8 27 7 13 7 13 -20 1z"/>
<path d="M4442 655 c0 -16 2 -22 5 -12 2 9 2 23 0 30 -3 6 -5 -1 -5 -18z"/>
<path d="M6351 660 c-1 -32 25 -130 38 -143 5 -5 1 26 -10 69 -25 98 -27 105
-28 74z"/>
<path d="M1707 650 c-3 -13 0 -20 9 -20 9 0 14 -12 15 -32 1 -31 1 -31 8 -8 5
16 3 31 -6 41 -7 9 -10 18 -7 21 3 3 1 9 -4 12 -5 3 -12 -3 -15 -14z"/>
<path d="M6433 655 c0 -8 4 -12 9 -9 5 3 6 10 3 15 -9 13 -12 11 -12 -6z"/>
<path d="M7485 659 c-4 -6 -5 -12 -2 -15 2 -3 7 2 10 11 7 17 1 20 -8 4z"/>
<path d="M9266 643 c-10 -18 -15 -22 -16 -12 0 9 -7 19 -15 23 -18 6 -20 -5
-4 -21 7 -7 12 -37 13 -67 0 -31 3 -56 6 -56 12 0 30 25 30 42 0 12 5 15 17
11 17 -7 17 -6 0 20 -9 14 -17 30 -17 34 0 4 5 1 10 -7 8 -13 10 -13 10 2 0
11 5 15 15 12 10 -4 15 0 15 11 0 9 -5 13 -10 10 -6 -3 -13 1 -16 9 -9 23 -21
20 -38 -11z"/>
<path d="M452 648 c-8 -8 -9 -15 -1 -25 8 -9 8 -17 1 -25 -5 -7 -9 -27 -7 -45
2 -25 -1 -30 -14 -25 -14 5 -14 3 -3 -11 8 -9 11 -20 8 -25 -3 -5 6 -14 20
-21 l25 -11 -3 100 c-2 55 -5 100 -8 100 -4 0 -11 -5 -18 -12z"/>
<path d="M4899 643 c-10 -12 -11 -15 -1 -9 10 6 11 1 6 -18 -4 -16 -2 -26 5
-26 6 0 11 16 11 35 0 40 -2 42 -21 18z"/>
<path d="M4860 616 c0 -15 4 -25 9 -22 5 4 12 0 15 -6 3 -7 3 -2 0 12 -9 38
-24 48 -24 16z"/>
<path d="M6505 630 c3 -5 8 -10 11 -10 2 0 4 5 4 10 0 6 -5 10 -11 10 -5 0 -7
-4 -4 -10z"/>
<path d="M7652 615 c0 -16 2 -22 5 -12 2 9 2 23 0 30 -3 6 -5 -1 -5 -18z"/>
<path d="M681 614 c6 -7 14 -25 18 -41 l8 -28 5 32 c2 18 1 30 -4 27 -4 -3 -8
1 -8 9 0 7 -7 14 -15 14 -11 0 -12 -4 -4 -13z"/>
<path d="M1178 623 c6 -2 18 -2 25 0 6 3 1 5 -13 5 -14 0 -19 -2 -12 -5z"/>
<path d="M1978 623 c6 -2 18 -2 25 0 6 3 1 5 -13 5 -14 0 -19 -2 -12 -5z"/>
<path d="M3020 622 c0 -5 7 -15 15 -22 8 -7 15 -8 15 -2 0 5 -7 15 -15 22 -8
7 -15 8 -15 2z"/>
<path d="M5148 623 c6 -2 18 -2 25 0 6 3 1 5 -13 5 -14 0 -19 -2 -12 -5z"/>
<path d="M6470 614 c0 -8 5 -12 10 -9 6 4 8 11 5 16 -9 14 -15 11 -15 -7z"/>
<path d="M7590 621 c0 -6 4 -13 10 -16 6 -3 7 1 4 9 -7 18 -14 21 -14 7z"/>
<path d="M1356 605 c-9 -26 -7 -32 5 -12 6 10 9 21 6 23 -2 3 -7 -2 -11 -11z"/>
<path d="M3075 611 c-3 -5 -1 -12 5 -16 5 -3 10 1 10 9 0 18 -6 21 -15 7z"/>
<path d="M6905 611 c-3 -5 -2 -12 3 -15 5 -3 9 1 9 9 0 17 -3 19 -12 6z"/>
<path d="M850 574 c5 -22 7 -47 4 -58 -4 -13 -2 -16 6 -11 14 9 8 81 -8 97 -7
7 -7 -2 -2 -28z"/>
<path d="M1131 593 c-7 -8 -10 -17 -7 -20 9 -9 29 13 25 25 -2 6 -10 3 -18 -5z"/>
<path d="M1305 585 c5 -26 38 -121 45 -129 12 -12 -10 87 -22 102 -7 8 -6 17
3 30 13 15 12 16 -3 4 -9 -7 -18 -9 -20 -5 -3 4 -4 4 -3 -2z"/>
<path d="M4162 575 c0 -16 2 -22 5 -12 2 9 2 23 0 30 -3 6 -5 -1 -5 -18z"/>
<path d="M9392 565 c0 -16 2 -22 5 -12 2 9 2 23 0 30 -3 6 -5 -1 -5 -18z"/>
<path d="M1381 564 c0 -11 3 -14 6 -6 3 7 2 16 -1 19 -3 4 -6 -2 -5 -13z"/>
<path d="M1464 547 c4 -34 3 -37 -11 -26 -13 11 -15 11 -12 -6 5 -25 37 -32
45 -11 4 9 -1 31 -11 49 l-16 32 5 -38z"/>
<path d="M7480 575 c0 -5 5 -17 10 -25 5 -8 10 -10 10 -5 0 6 -5 17 -10 25 -5
8 -10 11 -10 5z"/>
<path d="M821 552 c-1 -15 -5 -21 -13 -16 -7 5 -8 3 -3 -5 10 -18 28 2 22 25
-4 15 -5 14 -6 -4z"/>
<path d="M1680 550 c0 -19 3 -21 12 -12 9 9 9 15 0 24 -9 9 -12 7 -12 -12z"/>
<path d="M3150 556 c0 -8 4 -17 9 -20 5 -4 7 3 4 14 -6 23 -13 26 -13 6z"/>
<path d="M3025 540 c3 -5 8 -10 11 -10 2 0 4 5 4 10 0 6 -5 10 -11 10 -5 0 -7
-4 -4 -10z"/>
<path d="M701 524 c0 -11 3 -14 6 -6 3 7 2 16 -1 19 -3 4 -6 -2 -5 -13z"/>
<path d="M737 533 c-4 -3 -7 -11 -7 -17 0 -6 5 -5 12 2 6 6 9 14 7 17 -3 3 -9
2 -12 -2z"/>
<path d="M7182 510 c0 -19 2 -27 5 -17 2 9 2 25 0 35 -3 9 -5 1 -5 -18z"/>
<path d="M1858 523 c6 -2 18 -2 25 0 6 3 1 5 -13 5 -14 0 -19 -2 -12 -5z"/>
<path d="M1948 523 c12 -2 30 -2 40 0 9 3 -1 5 -23 4 -22 0 -30 -2 -17 -4z"/>
<path d="M4826 514 c-9 -24 -7 -28 7 -15 8 6 17 8 21 4 4 -4 4 0 0 10 -8 21
-20 22 -28 1z"/>
<path d="M5018 523 c6 -2 18 -2 25 0 6 3 1 5 -13 5 -14 0 -19 -2 -12 -5z"/>
<path d="M5068 523 c7 -3 16 -2 19 1 4 3 -2 6 -13 5 -11 0 -14 -3 -6 -6z"/>
<path d="M5123 523 c15 -2 37 -2 50 0 12 2 0 4 -28 4 -27 0 -38 -2 -22 -4z"/>
<path d="M6843 523 c4 -6 0 -13 -8 -17 -19 -7 -20 -23 -1 -23 18 0 28 34 14
44 -6 3 -8 1 -5 -4z"/>
<path d="M1806 498 c-8 -12 -12 -26 -9 -32 4 -6 8 -4 11 4 3 8 9 23 14 33 12
24 2 21 -16 -5z"/>
<path d="M2210 505 c-2 -5 -2 -13 -1 -17 0 -5 -6 -8 -14 -8 -8 0 -15 -4 -15
-10 0 -12 20 -13 36 -2 7 4 8 15 3 27 -4 11 -8 16 -9 10z"/>
<path d="M4972 490 c0 -14 2 -19 5 -12 2 6 2 18 0 25 -3 6 -5 1 -5 -13z"/>
<path d="M686 485 c-3 -8 -11 -15 -18 -15 -17 -1 -67 -39 -51 -40 6 0 18 7 27
15 8 8 21 15 30 15 8 0 20 9 26 20 6 11 7 20 1 20 -5 0 -11 -7 -15 -15z"/>
<path d="M1141 484 c0 -11 3 -14 6 -6 3 7 2 16 -1 19 -3 4 -6 -2 -5 -13z"/>
<path d="M1491 474 c0 -11 3 -14 6 -6 3 7 2 16 -1 19 -3 4 -6 -2 -5 -13z"/>
<path d="M5224 465 c4 -16 12 -34 17 -39 5 -6 5 4 -1 24 -12 42 -25 55 -16 15z"/>
<path d="M6790 470 c-12 -8 -10 -10 8 -10 13 0 20 4 17 10 -7 12 -6 12 -25 0z"/>
<path d="M3978 463 c7 -3 16 -2 19 1 4 3 -2 6 -13 5 -11 0 -14 -3 -6 -6z"/>
<path d="M2071 450 c0 -8 4 -24 9 -35 5 -13 9 -14 9 -5 0 8 -4 24 -9 35 -5 13
-9 14 -9 5z"/>
<path d="M1791 434 c0 -11 3 -14 6 -6 3 7 2 16 -1 19 -3 4 -6 -2 -5 -13z"/>
<path d="M3874 441 c5 -8 56 -3 56 5 0 2 -14 4 -31 4 -16 0 -28 -4 -25 -9z"/>
<path d="M6728 443 c7 -3 16 -2 19 1 4 3 -2 6 -13 5 -11 0 -14 -3 -6 -6z"/>
<path d="M8330 440 c-12 -8 -11 -10 8 -10 12 0 22 5 22 10 0 13 -11 13 -30 0z"/>
<path d="M8805 440 c3 -5 8 -10 11 -10 2 0 4 5 4 10 0 6 -5 10 -11 10 -5 0 -7
-4 -4 -10z"/>
<path d="M4798 417 c-3 -19 -2 -25 4 -19 6 6 8 18 6 28 -3 14 -5 12 -10 -9z"/>
<path d="M761 384 c-19 -13 -29 -24 -23 -24 6 0 24 11 39 25 35 31 28 31 -16
-1z"/>
<path d="M3666 385 c-3 -8 -1 -15 4 -15 6 0 10 7 10 15 0 8 -2 15 -4 15 -2 0
-6 -7 -10 -15z"/>
<path d="M680 350 c-23 -7 -23 -8 -3 -9 12 -1 25 4 28 9 3 6 5 10 3 9 -2 -1
-14 -5 -28 -9z"/>
<path d="M1370 351 c0 -5 7 -12 16 -15 14 -5 15 -4 4 9 -14 17 -20 19 -20 6z"/>
<path d="M1613 347 c-9 -15 4 -18 73 -15 l69 3 -68 10 c-38 6 -71 7 -74 2z"/>
<path d="M3130 352 c0 -12 19 -26 26 -19 2 2 -2 10 -11 17 -9 8 -15 8 -15 2z"/>
<path d="M396 338 c3 -4 33 -8 67 -7 72 1 66 6 -15 12 -31 2 -55 0 -52 -5z"/>
<path d="M990 340 c0 -5 15 -10 33 -9 27 0 29 2 12 9 -28 12 -45 12 -45 0z"/>
<path d="M1490 340 l-35 -7 43 -2 c23 0 42 4 42 9 0 6 -3 9 -7 9 -5 -1 -24 -5
-43 -9z"/>
<path d="M1765 340 c-3 -5 -1 -10 4 -10 6 0 11 5 11 10 0 6 -2 10 -4 10 -3 0
-8 -4 -11 -10z"/>
<path d="M2245 340 c-18 -8 -17 -9 8 -9 16 -1 26 3 22 9 -3 6 -7 10 -8 9 -1 0
-11 -4 -22 -9z"/>
<path d="M2390 340 c0 -5 5 -10 10 -10 6 0 10 5 10 10 0 6 -4 10 -10 10 -5 0
-10 -4 -10 -10z"/>
<path d="M2535 340 c-3 -5 -1 -10 4 -10 6 0 11 5 11 10 0 6 -2 10 -4 10 -3 0
-8 -4 -11 -10z"/>
<path d="M4575 340 c-3 -5 1 -10 9 -10 9 0 16 5 16 10 0 6 -4 10 -9 10 -6 0
-13 -4 -16 -10z"/>
<path d="M4770 338 c0 -5 38 -8 85 -8 47 0 85 3 85 8 0 4 -38 7 -85 7 -47 0
-85 -3 -85 -7z"/>
<path d="M5260 340 c0 -5 7 -10 16 -10 8 0 12 5 9 10 -3 6 -10 10 -16 10 -5 0
-9 -4 -9 -10z"/>
<path d="M5370 340 l-45 -7 53 -1 c29 -1 52 2 52 8 0 6 -3 9 -7 8 -5 0 -28 -4
-53 -8z"/>
<path d="M6060 340 c0 -5 7 -10 16 -10 8 0 12 5 9 10 -3 6 -10 10 -16 10 -5 0
-9 -4 -9 -10z"/>
<path d="M6210 340 c0 -5 5 -10 10 -10 6 0 10 5 10 10 0 6 -4 10 -10 10 -5 0
-10 -4 -10 -10z"/>
<path d="M7180 340 c0 -5 5 -10 11 -10 5 0 7 5 4 10 -3 6 -8 10 -11 10 -2 0
-4 -4 -4 -10z"/>
<path d="M7607 339 c7 -7 15 -10 18 -7 3 3 -2 9 -12 12 -14 6 -15 5 -6 -5z"/>
<path d="M8805 340 c-3 -5 -1 -10 4 -10 6 0 11 5 11 10 0 6 -2 10 -4 10 -3 0
-8 -4 -11 -10z"/>
<path d="M8998 343 c12 -2 32 -2 45 0 12 2 2 4 -23 4 -25 0 -35 -2 -22 -4z"/>
<path d="M543 333 c9 -2 23 -2 30 0 6 3 -1 5 -18 5 -16 0 -22 -2 -12 -5z"/>
<path d="M2188 333 c6 -2 18 -2 25 0 6 3 1 5 -13 5 -14 0 -19 -2 -12 -5z"/>
<path d="M8528 333 c46 -2 118 -2 160 0 42 1 5 3 -83 3 -88 0 -123 -2 -77 -3z"/>
</g>
</svg>
